<?xml version="1.0" encoding="utf-8" standalone="no"?>
<svg version="1.1" xmlns="http://www.w3.org/2000/svg" xmlns:xlink="http://www.w3.org/1999/xlink" width="240pt">
<g id="layer1">
	<path fill="none" stroke="#FE2712" stroke-width="2.00" stroke-linecap="round" stroke-linejoin="round" d="M26.025 28.437C26.025,28.688 25.749,29.045 26.025,29.190 26.420,29.398 27.635,29.312 28.907,29.161 31.758,28.823 37.859,25.962 42.149,26.023 46.305,26.081 50.218,28.754 54.268,29.313 57.899,29.815 61.421,29.886 65.185,29.523 69.557,29.101 75.161,26.582 78.807,26.506 81.194,26.455 82.753,26.982 84.818,27.550 87.428,28.267 90.046,30.250 92.944,30.756 95.594,31.217 98.464,31.042 101.369,30.730 104.744,30.368 108.287,28.789 111.889,28.412 115.400,28.044 119.588,27.934 122.694,28.437 125.445,28.882 127.020,30.455 129.779,30.937 132.917,31.484 137.010,31.499 140.734,31.213 144.830,30.898 149.859,29.232 153.285,28.896 155.550,28.673 156.991,28.477 159.087,28.799 162.121,29.265 166.175,32.132 169.209,32.420 171.358,32.625 172.836,32.129 175.142,31.651 178.792,30.894 184.874,28.231 188.560,27.713 190.868,27.388 192.359,27.464 194.560,27.674 197.460,27.951 200.567,29.271 204.306,29.666 208.989,30.160 217.681,30.385 220.660,29.885 221.950,29.669 222.312,29.237 223.139,28.912 "/>
</g>
</svg>